<?xml version="1.0" encoding="UTF-8"?>
<svg width="293px" height="281px" viewBox="0 0 293 281" version="1.1" xmlns="http://www.w3.org/2000/svg" xmlns:xlink="http://www.w3.org/1999/xlink">
    <!-- Generator: Sketch 64 (93537) - https://sketch.com -->
    <title>RoadcastLogo</title>
    <desc>Created with Sketch.</desc>
    <defs>
        <linearGradient x1="50%" y1="0%" x2="50%" y2="100%" id="linearGradient-1">
            <stop stop-color="#091521" offset="0%"></stop>
            <stop stop-color="#18212B" offset="100%"></stop>
        </linearGradient>
    </defs>
    <g id="Page-1" stroke="none" stroke-width="1" fill="none" fill-rule="evenodd">
        <g id="Desktop-HD-Copy-3" transform="translate(-573.000000, -271.000000)">
            <g id="RoadcastLogo" transform="translate(563.000000, 271.000000)">
                <g id="Group" transform="translate(-0.000000, 93.000000)"></g>
                <path d="M160,238 L160,281 L147,281 L147,238 L160,238 Z M61.839,175.499522 L43,281 L30,281 L48.839,175.499522 L61.839,175.499522 Z M258.161,175.499522 L277,281 L264,281 L245.161,175.499522 L258.161,175.499522 Z M160,183 L160,221.308458 L147,221.308458 L147,183 L160,183 Z M64.96,108.92 C70.4,108.92 74.68,110.56 77.8,113.84 C80.92,117.12 82.48,121.533333 82.48,127.08 L82.48,127.08 L82.48,150.6 L82.4777882,151.005797 C82.3480268,162.841932 76.508764,168.76 64.96,168.76 C53.28,168.76 47.44,162.706667 47.44,150.6 L47.44,150.6 L47.44,127.08 L47.4442975,126.57888 C47.535978,121.266899 49.0945455,117.020606 52.12,113.84 C55.24,110.56 59.52,108.92 64.96,108.92 Z M104.56,108.92 C109.413333,108.92 113.36,110.186667 116.4,112.72 C119.44,115.253333 120.96,118.84 120.96,123.48 L120.96,123.48 L120.96,168.12 L107.04,168.12 L107.04,161.16 L106.913356,161.577993 C106.21504,163.777762 105.150588,165.505098 103.72,166.76 C102.2,168.093333 100.4,168.76 98.32,168.76 C93.7866667,168.76 90.68,167.253333 89,164.24 C87.32,161.226667 86.48,156.92 86.48,151.32 C86.48,146.733333 87.08,143.213333 88.28,140.76 C89.48,138.306667 91.1466667,136.506667 93.28,135.36 C95.4133333,134.213333 98.6666667,132.946667 103.04,131.56 L103.04,131.56 L106.88,130.28 L106.88,124.28 L106.875306,123.954082 C106.834626,122.565646 106.529524,121.487619 105.96,120.72 C105.346667,119.893333 104.613333,119.48 103.76,119.48 C103.013333,119.48 102.36,119.826667 101.8,120.52 C101.24,121.213333 100.96,122.146667 100.96,123.32 L100.96,123.32 L100.96,126.84 L87.36,126.84 L87.36,124.92 L87.363298,124.430335 C87.4380517,118.926683 88.783619,114.983238 91.4,112.6 C94.0933333,110.146667 98.48,108.92 104.56,108.92 Z M298.08,99.4 L298.08,111.8 L302.08,111.8 L302.08,122.44 L298.08,122.44 L298.08,155.32 L298.0824,155.616 C298.0968,156.48 298.176,157.128 298.32,157.56 C298.48,158.04 298.906667,158.28 299.6,158.28 C300.133333,158.28 300.64,158.253333 301.12,158.2 C301.6,158.146667 301.92,158.12 302.08,158.12 L302.08,158.12 L302.08,167.72 L301.8725,167.773611 C301.084167,167.971204 299.993333,168.18 298.6,168.4 C297.08,168.64 295.6,168.76 294.16,168.76 C290.48,168.76 287.946667,167.986667 286.56,166.44 C285.173333,164.893333 284.48,162.413333 284.48,159 L284.48,159 L284.48,122.44 L280.56,122.44 L280.56,111.8 L284.48,111.8 L284.48,99.4 L298.08,99.4 Z M160.56,99 L160.56,168.12 L146.56,168.12 L146.56,161.88 L146.415917,162.278754 C145.631972,164.373702 144.6,165.960784 143.32,167.04 C141.96,168.186667 140.133333,168.76 137.84,168.76 C134.426667,168.76 131.853333,167.946667 130.12,166.32 C128.386667,164.693333 127.24,162.533333 126.68,159.84 C126.12,157.146667 125.84,153.693333 125.84,149.48 L125.84,149.48 L126,123.08 L126.004335,122.620905 C126.07947,118.669191 127.131358,115.422222 129.16,112.88 C131.266667,110.24 134.24,108.92 138.08,108.92 C141.866667,108.92 144.693333,110.173333 146.56,112.68 L146.56,112.68 L146.56,99 L160.56,99 Z M260.4,108.92 C271.76,108.92 277.44,114.573333 277.44,125.88 L277.44,125.88 L277.44,127 L262.96,127 L262.96,124.76 L262.95438,124.386777 C262.916915,123.159229 262.692121,122.09697 262.28,121.2 C261.826667,120.213333 261.066667,119.72 260,119.72 C259.04,119.72 258.306667,120 257.8,120.56 C257.293333,121.12 257.04,121.88 257.04,122.84 C257.04,124.973333 257.866667,126.626667 259.52,127.8 L259.52,127.8 L268.16,134.12 L268.668889,134.504074 C271.514815,136.690988 273.718519,139.056296 275.28,141.6 C276.933333,144.293333 277.76,147.693333 277.76,151.8 C277.76,157.24 276.213333,161.426667 273.12,164.36 C270.026667,167.293333 265.706667,168.76 260.16,168.76 C248.586667,168.76 242.8,162.893333 242.8,151.16 L242.8,151.16 L242.88,146.52 L256.88,146.52 L256.96,153.4 L256.964082,153.692041 C256.999456,154.935442 257.264762,155.891429 257.76,156.56 C258.293333,157.28 259.173333,157.64 260.4,157.64 C262.266667,157.64 263.2,156.12 263.2,153.08 C263.2,150.84 262.76,149.08 261.88,147.8 C261,146.52 259.6,145.16 257.68,143.72 L257.68,143.72 L250.24,137.96 L249.82,137.630494 C247.477778,135.759794 245.777778,133.82963 244.72,131.84 C243.6,129.733333 243.04,126.76 243.04,122.92 C243.04,119.933333 243.826667,117.386667 245.4,115.28 C246.973333,113.173333 249.066667,111.586667 251.68,110.52 C254.293333,109.453333 257.2,108.92 260.4,108.92 Z M222.32,108.92 C227.173333,108.92 231.12,110.186667 234.16,112.72 C237.2,115.253333 238.72,118.84 238.72,123.48 L238.72,123.48 L238.72,168.12 L224.8,168.12 L224.8,161.16 L224.673356,161.577993 C223.97504,163.777762 222.910588,165.505098 221.48,166.76 C219.96,168.093333 218.16,168.76 216.08,168.76 C211.546667,168.76 208.44,167.253333 206.76,164.24 C205.08,161.226667 204.24,156.92 204.24,151.32 C204.24,146.733333 204.84,143.213333 206.04,140.76 C207.24,138.306667 208.906667,136.506667 211.04,135.36 C213.173333,134.213333 216.426667,132.946667 220.8,131.56 L220.8,131.56 L224.64,130.28 L224.64,124.28 L224.635306,123.954082 C224.594626,122.565646 224.289524,121.487619 223.72,120.72 C223.106667,119.893333 222.373333,119.48 221.52,119.48 C220.773333,119.48 220.12,119.826667 219.56,120.52 C219,121.213333 218.72,122.146667 218.72,123.32 L218.72,123.32 L218.72,126.84 L205.12,126.84 L205.12,124.92 L205.123298,124.430335 C205.198052,118.926683 206.543619,114.983238 209.16,112.6 C211.853333,110.146667 216.24,108.92 222.32,108.92 Z M183.6,108.92 C188.613333,108.92 192.693333,110.226667 195.84,112.84 C198.986667,115.453333 200.56,119.106667 200.56,123.8 L200.56,123.8 L200.56,132.76 L186.32,132.76 L186.32,124.52 L186.316213,124.169467 C186.285917,122.792899 186.073846,121.723077 185.68,120.96 C185.253333,120.133333 184.426667,119.72 183.2,119.72 C180.906667,119.72 179.76,121.346667 179.76,124.6 L179.76,124.6 L179.76,153 L179.765833,153.329167 C179.808611,154.520833 180.086667,155.544444 180.6,156.4 C181.16,157.333333 182,157.8 183.12,157.8 C184.24,157.8 185.08,157.346667 185.64,156.44 C186.2,155.533333 186.453333,154.36 186.4,152.92 L186.4,152.92 L186.32,143.08 L200.56,143.08 L200.56,153.32 L200.555702,153.753535 C200.464022,158.347744 198.905455,161.976566 195.88,164.64 C192.76,167.386667 188.72,168.76 183.76,168.76 C177.36,168.76 172.746667,167.133333 169.92,163.88 C167.093333,160.626667 165.68,155.64 165.68,148.92 L165.68,148.92 L165.68,130.84 L165.682847,130.211597 C165.726505,125.431644 166.272222,121.521111 167.32,118.48 C168.413333,115.306667 170.253333,112.92 172.84,111.32 C175.426667,109.72 179.013333,108.92 183.6,108.92 Z M31.12,99.4 L31.5360417,99.4039583 C34.6953472,99.4646528 37.1566667,100.223333 38.92,101.68 C40.76,103.2 42,105.333333 42.64,108.08 C43.28,110.826667 43.6,114.333333 43.6,118.6 C43.6,122.493333 43.0933333,125.533333 42.08,127.72 C41.0666667,129.906667 39.3066667,131.426667 36.8,132.28 C38.88,132.706667 40.3866667,133.746667 41.32,135.4 C42.2533333,137.053333 42.72,139.293333 42.72,142.12 L42.72,142.12 L42.56,168.12 L29.12,168.12 L29.12,141.24 L29.1168975,140.942604 C29.0796676,139.192798 28.7073684,138.065263 28,137.56 C27.2533333,137.026667 25.8933333,136.76 23.92,136.76 L23.92,136.76 L23.92,168.12 L10,168.12 L10,99.4 L31.12,99.4 Z M64.96,119.72 C62.7733333,119.72 61.68,121.426667 61.68,124.84 L61.68,124.84 L61.68,153.48 L61.6847337,153.794793 C61.7226036,155.033136 61.9876923,156.021538 62.48,156.76 C63.0133333,157.56 63.84,157.96 64.96,157.96 C66.08,157.96 66.9066667,157.56 67.44,156.76 C67.9733333,155.96 68.24,154.866667 68.24,153.48 L68.24,153.48 L68.24,124.84 L68.2371626,124.543253 C68.1747405,121.327751 67.0823529,119.72 64.96,119.72 Z M224.56,137 L224.176406,137.1525 C222.290469,137.9275 220.885,138.89 219.96,140.04 C218.973333,141.266667 218.48,142.973333 218.48,145.16 L218.48,145.16 L218.48,152.68 L218.482699,152.981384 C218.542076,156.247128 219.581176,157.88 221.6,157.88 C222.666667,157.88 223.426667,157.44 223.88,156.56 C224.333333,155.68 224.56,154.6 224.56,153.32 L224.56,153.32 L224.56,137 Z M106.8,137 L106.416406,137.1525 C104.530469,137.9275 103.125,138.89 102.2,140.04 C101.213333,141.266667 100.72,142.973333 100.72,145.16 L100.72,145.16 L100.72,152.68 L100.722699,152.981384 C100.782076,156.247128 101.821176,157.88 103.84,157.88 C104.906667,157.88 105.666667,157.44 106.12,156.56 C106.573333,155.68 106.8,154.6 106.8,153.32 L106.8,153.32 L106.8,137 Z M143.28,119.72 C141.893333,119.72 140.973333,120.266667 140.52,121.36 C140.066667,122.453333 139.84,123.933333 139.84,125.8 L139.84,125.8 L139.84,150.44 L139.841817,150.778345 C139.892699,155.459448 141.012093,157.8 143.2,157.8 C144.586667,157.8 145.493333,157.12 145.92,155.76 C146.346667,154.4 146.56,152.573333 146.56,150.28 L146.56,150.28 L146.56,125.8 L146.555,125.378889 C146.518333,123.855185 146.28,122.555556 145.84,121.48 C145.36,120.306667 144.506667,119.72 143.28,119.72 Z M27.2,112.12 L24,112.12 L24,124.84 L27.28,124.84 C29.2,124.84 30.16,122.76 30.16,118.6 C30.16,116.786667 30.08,115.426667 29.92,114.52 C29.76,113.613333 29.4666667,112.986667 29.04,112.64 C28.6133333,112.293333 28,112.12 27.2,112.12 L27.2,112.12 Z M227,1 L244.232,97.4995224 L231.232,97.4995224 L214,1 L227,1 Z M93,1 L75.768,97.4995224 L62.768,97.4995224 L80,1 L93,1 Z M160,59 L160,86 L147,86 L147,59 L160,59 Z M160,26 L160,46.8955224 L147,46.8955224 L147,26 L160,26 Z M160,0.895522388 L160,15.8955224 L147,15.8955224 L147,0.895522388 L160,0.895522388 Z" id="Combined-Shape" fill="url(#linearGradient-1)"></path>
            </g>
        </g>
    </g>
</svg>